<svg width="61" height="13" viewBox="0 0 61 13" fill="none" xmlns="http://www.w3.org/2000/svg">
<path d="M18.5435 11H17.4536L15.7749 6.14844L14.0786 11H12.98L15.2476 4.53125H16.2935L18.5435 11ZM16.355 8.94336L16.6099 9.65527H14.9312L15.1772 8.94336H16.355ZM20.9165 11H19.8442V6.04297H20.9165V11ZM21.0132 4.46094C21.0132 4.63672 20.9517 4.78613 20.8286 4.90918C20.7056 5.02637 20.5562 5.08496 20.3804 5.08496C20.2046 5.08496 20.0552 5.02344 19.9321 4.90039C19.8149 4.77734 19.7563 4.63086 19.7563 4.46094C19.7563 4.28516 19.8179 4.13574 19.9409 4.0127C20.064 3.88965 20.2104 3.82812 20.3804 3.82812C20.5562 3.82812 20.7056 3.88965 20.8286 4.0127C20.9517 4.13574 21.0132 4.28516 21.0132 4.46094ZM25.5571 7.58984C25.6919 7.60742 25.8354 7.65137 25.9878 7.72168C26.1401 7.79199 26.2808 7.8916 26.4097 8.02051C26.5444 8.14941 26.6558 8.30762 26.7437 8.49512C26.8315 8.67676 26.8755 8.8877 26.8755 9.12793C26.8755 9.4209 26.8315 9.67285 26.7437 9.88379C26.6558 10.0947 26.5444 10.2705 26.4097 10.4111C26.2808 10.5459 26.1372 10.6543 25.979 10.7363C25.8267 10.8125 25.6772 10.8711 25.5308 10.9121C25.3901 10.9531 25.2642 10.9795 25.1528 10.9912C25.0415 10.9971 24.9683 11 24.9331 11H23.9136V10.2266H24.8716C25.1821 10.2266 25.4253 10.127 25.6011 9.92773C25.7769 9.72852 25.8647 9.46191 25.8647 9.12793C25.8647 8.81152 25.7739 8.54492 25.5923 8.32812C25.4106 8.11133 25.144 8.00293 24.7925 8.00293H23.9136V7.29102H24.3354C24.4644 7.29102 24.5962 7.28809 24.731 7.28223C24.8657 7.27637 24.9917 7.24414 25.1089 7.18555C25.2261 7.12695 25.3198 7.02734 25.3901 6.88672C25.4663 6.74609 25.5044 6.54395 25.5044 6.28027C25.5044 6.1748 25.4897 6.06641 25.4604 5.95508C25.4312 5.83789 25.3726 5.73242 25.2847 5.63867C25.1968 5.54492 25.0708 5.46875 24.9067 5.41016C24.7427 5.35156 24.5259 5.32227 24.2563 5.32227H23.9136V4.52246H24.3618C24.6372 4.52246 24.9038 4.55469 25.1616 4.61914C25.4194 4.68359 25.6479 4.78613 25.8472 4.92676C26.0464 5.06738 26.2046 5.25195 26.3218 5.48047C26.439 5.70312 26.4976 5.96973 26.4976 6.28027C26.4976 6.46191 26.4683 6.62891 26.4097 6.78125C26.3511 6.92773 26.2778 7.05664 26.1899 7.16797C26.1021 7.2793 25.9995 7.37305 25.8823 7.44922C25.771 7.51953 25.6626 7.56641 25.5571 7.58984ZM22.4985 4.52246H23.5532V11H22.4985V4.52246ZM30.6372 6.0166C30.9595 6.03418 31.2524 6.11328 31.5161 6.25391C31.7798 6.38867 31.9995 6.57031 32.1753 6.79883C32.3569 7.02148 32.4976 7.28223 32.5972 7.58105C32.6968 7.87988 32.7466 8.19922 32.7466 8.53906C32.7466 8.87891 32.6938 9.19824 32.5884 9.49707C32.4888 9.79004 32.3481 10.0479 32.1665 10.2705C31.9849 10.4873 31.7622 10.6631 31.4985 10.7979C31.2349 10.9326 30.9478 11.0117 30.6372 11.0352V10.1914C30.9302 10.127 31.1675 9.94238 31.3491 9.6377C31.5366 9.33301 31.6304 8.9668 31.6304 8.53906C31.6304 8.32227 31.6069 8.12012 31.5601 7.93262C31.519 7.73926 31.4546 7.56641 31.3667 7.41406C31.2788 7.26172 31.1733 7.13574 31.0503 7.03613C30.9272 6.93652 30.7896 6.87207 30.6372 6.84277V6.0166ZM28.1851 8.52148C28.1851 8.18164 28.2349 7.86523 28.3345 7.57227C28.4341 7.2793 28.5747 7.02441 28.7563 6.80762C28.9438 6.58496 29.1665 6.40625 29.4243 6.27148C29.6821 6.13672 29.9663 6.05469 30.2769 6.02539V6.84277C29.9839 6.90723 29.7495 7.0918 29.5737 7.39648C29.3979 7.70117 29.3101 8.06738 29.3101 8.49512C29.3101 8.71191 29.3306 8.91699 29.3716 9.11035C29.4185 9.30371 29.4829 9.47656 29.5649 9.62891C29.647 9.78125 29.7466 9.90723 29.8638 10.0068C29.9868 10.1064 30.1245 10.168 30.2769 10.1914V11.0352C29.9546 11.0117 29.6646 10.9326 29.4067 10.7979C29.1489 10.6572 28.9292 10.4756 28.7476 10.2529C28.5659 10.0303 28.4253 9.76953 28.3257 9.4707C28.2319 9.17188 28.1851 8.85547 28.1851 8.52148ZM36.4556 6.0166C36.7778 6.03418 37.0708 6.11328 37.3345 6.25391C37.5981 6.38867 37.8179 6.57031 37.9937 6.79883C38.1753 7.02148 38.3159 7.28223 38.4155 7.58105C38.5151 7.87988 38.5649 8.19922 38.5649 8.53906C38.5649 8.87891 38.5122 9.19824 38.4067 9.49707C38.3071 9.79004 38.1665 10.0479 37.9849 10.2705C37.8032 10.4873 37.5806 10.6631 37.3169 10.7979C37.0532 10.9326 36.7661 11.0117 36.4556 11.0352V10.1914C36.7485 10.127 36.9858 9.94238 37.1675 9.6377C37.355 9.33301 37.4487 8.9668 37.4487 8.53906C37.4487 8.32227 37.4253 8.12012 37.3784 7.93262C37.3374 7.73926 37.2729 7.56641 37.1851 7.41406C37.0972 7.26172 36.9917 7.13574 36.8687 7.03613C36.7456 6.93652 36.6079 6.87207 36.4556 6.84277V6.0166ZM34.0034 8.52148C34.0034 8.18164 34.0532 7.86523 34.1528 7.57227C34.2524 7.2793 34.3931 7.02441 34.5747 6.80762C34.7622 6.58496 34.9849 6.40625 35.2427 6.27148C35.5005 6.13672 35.7847 6.05469 36.0952 6.02539V6.84277C35.8022 6.90723 35.5679 7.0918 35.3921 7.39648C35.2163 7.70117 35.1284 8.06738 35.1284 8.49512C35.1284 8.71191 35.1489 8.91699 35.1899 9.11035C35.2368 9.30371 35.3013 9.47656 35.3833 9.62891C35.4653 9.78125 35.5649 9.90723 35.6821 10.0068C35.8052 10.1064 35.9429 10.168 36.0952 10.1914V11.0352C35.7729 11.0117 35.4829 10.9326 35.2251 10.7979C34.9673 10.6572 34.7476 10.4756 34.5659 10.2529C34.3843 10.0303 34.2437 9.76953 34.144 9.4707C34.0503 9.17188 34.0034 8.85547 34.0034 8.52148ZM39.8306 7.45801C39.8306 7.23535 39.8716 7.03613 39.9536 6.86035C40.0356 6.67871 40.1499 6.52637 40.2964 6.40332C40.4429 6.27441 40.6069 6.1748 40.7886 6.10449C40.9761 6.02832 41.1694 5.98145 41.3687 5.96387V6.84277C41.2163 6.87207 41.0962 6.93359 41.0083 7.02734C40.9263 7.12109 40.8853 7.25293 40.8853 7.42285C40.8853 7.56348 40.9292 7.67773 41.0171 7.76562C41.1108 7.84766 41.228 7.9209 41.3687 7.98535V8.92578C41.269 8.89648 41.1665 8.86426 41.061 8.8291C40.9614 8.78809 40.8618 8.74414 40.7622 8.69727C40.4517 8.5332 40.2173 8.36035 40.0591 8.17871C39.9067 7.99707 39.8306 7.75684 39.8306 7.45801ZM42.7661 7.08887C42.6079 7.00684 42.438 6.94531 42.2563 6.9043C42.0806 6.86328 41.9048 6.83691 41.729 6.8252V5.95508C41.9927 5.9668 42.2358 6.00488 42.4585 6.06934C42.6812 6.12793 42.8979 6.22461 43.1089 6.35938L42.7661 7.08887ZM40.2964 9.89258C40.4136 9.97461 40.5513 10.0508 40.7095 10.1211C40.8735 10.1914 41.0786 10.2266 41.3247 10.2266H41.3687V11.0439C41.2222 11.0439 41.0874 11.0381 40.9644 11.0264C40.8413 11.0205 40.7183 11.0029 40.5952 10.9736C40.478 10.9385 40.3579 10.8916 40.2349 10.833C40.1118 10.7744 39.9829 10.6982 39.8481 10.6045L40.2964 9.89258ZM41.729 8.12598C41.9048 8.18457 42.0835 8.24902 42.2651 8.31934C42.4468 8.38965 42.6108 8.47754 42.7573 8.58301C42.9097 8.68848 43.0327 8.82031 43.1265 8.97852C43.2261 9.13086 43.2759 9.32422 43.2759 9.55859C43.2759 9.78711 43.2349 9.98633 43.1528 10.1562C43.0708 10.3262 42.9595 10.4727 42.8188 10.5957C42.6841 10.7188 42.5229 10.8154 42.3354 10.8857C42.1479 10.9561 41.9458 11.0029 41.729 11.0264V10.1914C41.9282 10.1562 42.0806 10.0947 42.186 10.0068C42.2974 9.91309 42.353 9.79004 42.353 9.6377C42.353 9.48535 42.2915 9.36816 42.1685 9.28613C42.0513 9.19824 41.9048 9.12207 41.729 9.05762V8.12598ZM46.0708 9.49707C46.0708 9.69629 46.0972 9.85156 46.1499 9.96289C46.2026 10.0742 46.2759 10.1592 46.3696 10.2178C46.4692 10.2764 46.5776 10.3145 46.6948 10.332C46.8179 10.3438 46.9468 10.3496 47.0815 10.3496V11C47.0054 11.0117 46.9292 11.0205 46.853 11.0264C46.7886 11.0322 46.7095 11.0352 46.6157 11.0352C46.5278 11.041 46.4399 11.0439 46.3521 11.0439C46.2642 11.0439 46.1733 11.041 46.0796 11.0352C45.9917 11.0293 45.9155 11.0205 45.8511 11.0088C45.6519 10.9736 45.4966 10.8887 45.3853 10.7539C45.2739 10.6133 45.189 10.4609 45.1304 10.2969C45.0776 10.127 45.0425 9.96289 45.0249 9.80469C45.0132 9.64648 45.0073 9.52344 45.0073 9.43555V6.76367H44.3569V6.04297H45.0073V4.63672H46.0708V6.04297H46.8618V6.76367H46.0708V9.49707Z" fill="#D4D6E8"/>
<path d="M52.816 8.2L51.332 11H50.776L50.496 8.948L49.376 11H48.82L48.452 8.2H48.968L49.244 10.328L50.392 8.2H50.876L51.152 10.348L52.3 8.2H52.816ZM53.6676 8.636L53.5236 9.364H54.8796L54.7956 9.792H53.4356L53.2836 10.564H54.8676L54.7796 11H52.6796L53.2396 8.2H55.2836L55.1956 8.636H53.6676ZM57.6233 9.552C57.7433 9.59733 57.8366 9.668 57.9033 9.764C57.97 9.86 58.0033 9.97867 58.0033 10.12C58.0033 10.408 57.8913 10.6267 57.6673 10.776C57.4433 10.9253 57.142 11 56.7633 11H55.3593L55.9193 8.2H57.2113C57.502 8.2 57.726 8.25467 57.8833 8.364C58.0433 8.47067 58.1233 8.62533 58.1233 8.828C58.1233 9.00133 58.078 9.15067 57.9873 9.276C57.8966 9.39867 57.7753 9.49067 57.6233 9.552ZM56.3553 8.608L56.1993 9.38H56.9393C57.1366 9.38 57.2926 9.34133 57.4073 9.264C57.522 9.184 57.5793 9.068 57.5793 8.916C57.5793 8.71067 57.418 8.608 57.0953 8.608H56.3553ZM56.7993 10.592C57.018 10.592 57.186 10.552 57.3033 10.472C57.4233 10.392 57.4833 10.2747 57.4833 10.12C57.4833 10 57.4406 9.91467 57.3553 9.864C57.2726 9.81067 57.1473 9.784 56.9793 9.784H56.1193L55.9593 10.592H56.7993ZM60.5663 8.548L59.7183 9.368C59.9236 9.40533 60.0823 9.48667 60.1943 9.612C60.3063 9.73467 60.3623 9.89067 60.3623 10.08C60.3623 10.264 60.3103 10.4293 60.2063 10.576C60.1023 10.72 59.9556 10.8333 59.7663 10.916C59.5796 10.9987 59.3649 11.04 59.1223 11.04C58.9143 11.04 58.7223 11.0107 58.5463 10.952C58.3703 10.8933 58.2276 10.8107 58.1183 10.704L58.3783 10.308C58.4636 10.3933 58.5743 10.4613 58.7103 10.512C58.8463 10.5627 58.9943 10.588 59.1543 10.588C59.3703 10.588 59.5383 10.5467 59.6583 10.464C59.7783 10.3787 59.8383 10.26 59.8383 10.108C59.8383 9.868 59.6583 9.748 59.2983 9.748H59.0463L59.1183 9.392L59.8983 8.636H58.6383L58.7263 8.2H60.6303L60.5663 8.548Z" fill="#10F0AD"/>
<path d="M11.5917 8.62333L11.7813 8.04916L11.4292 7.38562L11.1258 7.3125L10.4163 6.32937C10.4163 5.59 9.98292 5.41937 9.42229 5.43562V6.77083L10.484 7.60229L10.27 7.84333L10.3404 8.63687L10.8631 8.85625L11.5917 8.62333ZM10.5138 7.59687L11.1556 7.30166L10.5138 7.59687ZM6.5 6.20208C6.65515 6.20224 6.80521 6.25743 6.92349 6.35784C7.04176 6.45824 7.12059 6.59735 7.14594 6.75042C7.17128 6.90348 7.14151 7.06057 7.06192 7.19375C6.98232 7.32692 6.85806 7.42754 6.71125 7.47771L6.99833 8.86437L6.5 9.0025L5.99625 8.86437L6.28333 7.47771C6.13607 7.4274 6.01151 7.32633 5.93194 7.19259C5.85237 7.05885 5.82299 6.90115 5.84905 6.74773C5.87511 6.5943 5.95491 6.45516 6.07417 6.35519C6.19344 6.25522 6.34438 6.20094 6.5 6.20208V6.20208ZM7.38292 10.1833C7.42083 10.5842 7.49667 10.9958 7.58063 10.9958H9.43042C10.0344 10.9958 10.0425 8.59083 9.47375 8.59083H9.15688L7.38292 10.1833ZM1.40833 8.62333L1.21875 8.04916L1.57083 7.38562L1.87417 7.3125L2.58375 6.32937C2.58375 5.59 3.01708 5.41937 3.57771 5.43562V6.77083L2.51604 7.59687L2.73 7.83791L2.65958 8.63146L2.13687 8.85083L1.40833 8.62333ZM2.51604 7.59687L1.87417 7.30166L2.51604 7.59687ZM5.64958 10.1833C5.61167 10.5842 5.53583 10.9958 5.44917 10.9958H3.59938C2.99813 10.9958 2.98729 8.59083 3.55604 8.59083H3.87563L5.64958 10.1833ZM8.10604 4.29271H7.29354V4.08687C7.30933 3.99052 7.35885 3.90291 7.43327 3.83969C7.50769 3.77647 7.60215 3.74177 7.69979 3.74177C7.79743 3.74177 7.8919 3.77647 7.96631 3.83969C8.04073 3.90291 8.09025 3.99052 8.10604 4.08687V4.29271ZM5.72 4.29271H4.9075V4.08687C4.92329 3.99052 4.97281 3.90291 5.04723 3.83969C5.12164 3.77647 5.21611 3.74177 5.31375 3.74177C5.41139 3.74177 5.50586 3.77647 5.58027 3.83969C5.65469 3.90291 5.70421 3.99052 5.72 4.08687V4.29271Z" stroke="#10F0AD" stroke-width="0.4" stroke-linecap="round" stroke-linejoin="round"/>
<path d="M9.02141 5.30562H3.97849C3.87219 5.30562 3.77023 5.34785 3.69506 5.42302C3.61989 5.4982 3.57766 5.60015 3.57766 5.70646V7.39646C3.57766 8.1715 3.88554 8.91479 4.43358 9.46283C4.98162 10.0109 5.72491 10.3187 6.49995 10.3187C7.27499 10.3187 8.01829 10.0109 8.56632 9.46283C9.11436 8.91479 9.42224 8.1715 9.42224 7.39646V5.70646C9.42224 5.60015 9.38001 5.4982 9.30484 5.42302C9.22967 5.34785 9.12772 5.30562 9.02141 5.30562V5.30562ZM6.49995 1.97979C7.27499 1.97979 8.01829 2.28767 8.56632 2.83571C9.11436 3.38375 9.42224 4.12704 9.42224 4.90208V4.90208C9.42224 4.95508 9.41181 5.00755 9.39153 5.05651C9.37125 5.10547 9.34152 5.14996 9.30405 5.18743C9.26658 5.2249 9.22209 5.25463 9.17313 5.27491C9.12417 5.29519 9.0717 5.30562 9.0187 5.30562H3.97849C3.87147 5.30562 3.76882 5.26311 3.69315 5.18743C3.61747 5.11175 3.57495 5.00911 3.57495 4.90208V4.90208C3.57495 4.51809 3.65063 4.13787 3.79766 3.78314C3.94468 3.42842 4.16018 3.10615 4.43183 2.83475C4.70348 2.56336 5.02595 2.34816 5.38081 2.20146C5.73567 2.05476 6.11596 1.97944 6.49995 1.97979V1.97979Z" stroke="#10F0AD" stroke-width="0.4" stroke-linecap="round" stroke-linejoin="round"/>
</svg>
