<svg width="52" height="22" viewBox="0 0 52 22" fill="none" xmlns="http://www.w3.org/2000/svg">
<path d="M15.8932 12.6441L16.2989 14H17.4626L15.9466 9.08897H14.548L13.0534 14H13.726L14.1317 12.6441H15.8932ZM15.7224 12.0676H14.3025L15.0178 9.68683L15.7224 12.0676ZM18.6423 9.80427C18.8416 9.80427 19.0089 9.74021 19.1441 9.6121C19.2794 9.47687 19.347 9.30961 19.347 9.11032C19.347 8.90391 19.2794 8.7331 19.1441 8.59786C19.0089 8.45552 18.8416 8.38434 18.6423 8.38434C18.4431 8.38434 18.2758 8.45552 18.1406 8.59786C18.0053 8.7331 17.9377 8.90036 17.9377 9.09964C17.9377 9.29182 18.0053 9.45907 18.1406 9.60142C18.2829 9.73665 18.4502 9.80427 18.6423 9.80427ZM19.2402 14V10.1566H18.0445V14H19.2402ZM23.7481 10.3488C23.7481 10.0214 23.6235 9.72954 23.3744 9.47331C23.1324 9.21708 22.7054 9.08897 22.0933 9.08897H20.3638V14H22.2855C22.8833 14 23.3068 13.8719 23.5559 13.6157C23.805 13.3594 23.9296 13.0498 23.9296 12.6868C23.9296 12.0747 23.6307 11.669 23.0328 11.4698C23.5097 11.2918 23.7481 10.9181 23.7481 10.3488ZM21.5702 11.2776V9.52669H21.9759C22.3602 9.52669 22.5524 9.81851 22.5524 10.4021C22.5524 10.9858 22.3602 11.2776 21.9759 11.2776H21.5702ZM21.5702 13.5623V11.7046H22.1253C22.3104 11.7046 22.4563 11.8043 22.563 12.0036C22.6769 12.1957 22.7339 12.4235 22.7339 12.6868C22.7339 13.2705 22.531 13.5623 22.1253 13.5623H21.5702ZM28.0468 12.0783C28.0468 10.7331 27.4383 10.0605 26.2212 10.0605C25.0112 10.0605 24.4062 10.7331 24.4062 12.0783C24.4062 13.4235 25.0112 14.0961 26.2212 14.0961C27.4383 14.0961 28.0468 13.4235 28.0468 12.0783ZM25.5913 12.0783C25.5913 11.5801 25.634 11.2171 25.7194 10.9893C25.8048 10.7616 25.9721 10.6477 26.2212 10.6477C26.4774 10.6477 26.6447 10.7616 26.7229 10.9893C26.8084 11.21 26.8511 11.573 26.8511 12.0783C26.8511 12.5836 26.8084 12.9502 26.7229 13.1779C26.6447 13.3986 26.4774 13.5089 26.2212 13.5089C25.9721 13.5089 25.8048 13.395 25.7194 13.1673C25.634 12.9395 25.5913 12.5765 25.5913 12.0783ZM32.3241 12.0783C32.3241 10.7331 31.7156 10.0605 30.4985 10.0605C29.2885 10.0605 28.6836 10.7331 28.6836 12.0783C28.6836 13.4235 29.2885 14.0961 30.4985 14.0961C31.7156 14.0961 32.3241 13.4235 32.3241 12.0783ZM29.8686 12.0783C29.8686 11.5801 29.9113 11.2171 29.9967 10.9893C30.0821 10.7616 30.2494 10.6477 30.4985 10.6477C30.7547 10.6477 30.922 10.7616 31.0003 10.9893C31.0857 11.21 31.1284 11.573 31.1284 12.0783C31.1284 12.5836 31.0857 12.9502 31.0003 13.1779C30.922 13.3986 30.7547 13.5089 30.4985 13.5089C30.2494 13.5089 30.0821 13.395 29.9967 13.1673C29.9113 12.9395 29.8686 12.5765 29.8686 12.0783ZM34.7011 11.5445C34.452 11.4733 34.2634 11.3986 34.1353 11.3203C34.0072 11.2349 33.9431 11.1246 33.9431 10.9893C33.9431 10.7616 34.1211 10.6477 34.4769 10.6477C34.8684 10.6477 35.0855 10.9039 35.1282 11.4164L36.1211 11.2883C36.057 10.8826 35.8969 10.5765 35.6406 10.3701C35.3844 10.1637 35.0143 10.0605 34.5303 10.0605C34.0463 10.0605 33.6584 10.1637 33.3666 10.3701C33.0819 10.5694 32.9396 10.8505 32.9396 11.2135C32.9396 11.5694 33.025 11.8434 33.1958 12.0356C33.3737 12.2206 33.6406 12.363 33.9965 12.4626L34.3381 12.5694C34.8791 12.7189 35.1495 12.9146 35.1495 13.1566C35.1495 13.3915 34.9609 13.5089 34.5837 13.5089C34.3773 13.5089 34.21 13.4377 34.0819 13.2954C33.9538 13.153 33.8791 12.9573 33.8577 12.7082L32.8755 12.847C32.9396 13.2598 33.0997 13.573 33.3559 13.7865C33.6193 13.9929 34.0036 14.0961 34.509 14.0961C35.0143 14.0961 35.4129 13.9893 35.7047 13.7758C36.0036 13.5623 36.1531 13.2776 36.1531 12.9217C36.1531 12.5587 36.057 12.2847 35.8648 12.0996C35.6727 11.9146 35.3915 11.7687 35.0214 11.6619L34.7011 11.5445ZM38.9529 13.3274C38.7821 13.4057 38.6397 13.4448 38.5259 13.4448C38.3408 13.4448 38.2483 13.3203 38.2483 13.0712V10.7651H38.9743V10.1566H38.2483V9.22776L37.0525 9.63345V10.1566H36.476V10.7651H37.0525V12.8363C37.0525 13.3132 37.138 13.637 37.3088 13.8078C37.5009 14 37.775 14.0961 38.1308 14.0961C38.4938 14.0961 38.8212 14.0178 39.113 13.8612L38.9529 13.3274Z" fill="#081056"/>
<path d="M40.164 11.124H40.612L41.396 13.332L41.328 13.304L41.9 11.824L42.08 12.348L41.316 14.132L40.164 11.124ZM41.552 11.124H41.94L42.788 13.3L42.708 13.284L43.456 11.124H43.868L42.732 14.128L41.552 11.124ZM44.4473 11.108H46.3273V11.48H44.8353V12.36H46.1673V12.732H44.8353V13.628H46.3832V14H44.4473V11.108ZM47.8006 11.108C48.0913 11.108 48.3193 11.168 48.4846 11.288C48.6526 11.4053 48.7366 11.5893 48.7366 11.84C48.7366 11.992 48.702 12.124 48.6326 12.236C48.5633 12.348 48.466 12.436 48.3406 12.5C48.218 12.564 48.0726 12.6 47.9046 12.608L47.8486 12.408C48.0433 12.4133 48.218 12.448 48.3726 12.512C48.5273 12.576 48.65 12.6653 48.7406 12.78C48.8313 12.8947 48.8766 13.0307 48.8766 13.188C48.8766 13.332 48.85 13.456 48.7966 13.56C48.7433 13.6613 48.6713 13.7453 48.5806 13.812C48.49 13.876 48.3873 13.924 48.2726 13.956C48.158 13.9853 48.0393 14 47.9166 14H47.0566V11.108H47.8006ZM47.8806 12.376C48.0406 12.376 48.1566 12.332 48.2286 12.244C48.3006 12.1533 48.3366 12.044 48.3366 11.916C48.3366 11.764 48.29 11.6533 48.1966 11.584C48.1033 11.5147 47.978 11.48 47.8206 11.48H47.4446V12.376H47.8806ZM47.8966 13.64C48.0033 13.64 48.1006 13.624 48.1886 13.592C48.2793 13.56 48.35 13.5107 48.4006 13.444C48.454 13.3773 48.4806 13.2933 48.4806 13.192C48.4806 13.08 48.45 12.992 48.3886 12.928C48.33 12.864 48.254 12.8187 48.1606 12.792C48.0673 12.7627 47.9713 12.748 47.8726 12.748H47.4446V13.64H47.8966ZM50.8613 11.368L50.1573 12.5L49.9253 12.392C49.9599 12.3733 49.9986 12.36 50.0413 12.352C50.0839 12.344 50.1266 12.34 50.1693 12.34C50.2679 12.3347 50.3639 12.3453 50.4573 12.372C50.5506 12.3987 50.6346 12.4427 50.7093 12.504C50.7839 12.5653 50.8426 12.6467 50.8853 12.748C50.9306 12.8493 50.9533 12.9747 50.9533 13.124C50.9533 13.3107 50.9106 13.472 50.8253 13.608C50.7399 13.744 50.6266 13.8493 50.4853 13.924C50.3466 13.996 50.1919 14.032 50.0213 14.032C49.8933 14.032 49.7653 14.0067 49.6373 13.956C49.5119 13.9027 49.4079 13.8333 49.3253 13.748L49.5213 13.428C49.5719 13.4867 49.6413 13.54 49.7293 13.588C49.8199 13.636 49.9133 13.66 50.0093 13.66C50.1106 13.66 50.2013 13.6373 50.2813 13.592C50.3639 13.5467 50.4293 13.4827 50.4773 13.4C50.5279 13.3147 50.5533 13.216 50.5533 13.104C50.5533 12.9493 50.5079 12.828 50.4173 12.74C50.3293 12.652 50.2079 12.608 50.0533 12.608C49.9759 12.608 49.9106 12.6147 49.8573 12.628C49.8039 12.6387 49.7559 12.652 49.7133 12.668L49.7013 12.652L50.3213 11.688L50.4413 11.74H49.4773V11.368H50.8613Z" fill="#12E0A2"/>
<path d="M11.5917 11.6233L11.7813 11.0492L11.4292 10.3856L11.1258 10.3125L10.4163 9.32937C10.4163 8.59 9.98292 8.41937 9.42229 8.43562V9.77083L10.484 10.6023L10.27 10.8433L10.3404 11.6369L10.8631 11.8562L11.5917 11.6233ZM10.5138 10.5969L11.1556 10.3017L10.5138 10.5969ZM6.5 9.20208C6.65515 9.20224 6.80521 9.25743 6.92349 9.35784C7.04176 9.45824 7.12059 9.59735 7.14594 9.75042C7.17128 9.90348 7.14151 10.0606 7.06192 10.1937C6.98232 10.3269 6.85806 10.4275 6.71125 10.4777L6.99833 11.8644L6.5 12.0025L5.99625 11.8644L6.28333 10.4777C6.13607 10.4274 6.01151 10.3263 5.93194 10.1926C5.85237 10.0588 5.82299 9.90115 5.84905 9.74773C5.87511 9.5943 5.95491 9.45516 6.07417 9.35519C6.19344 9.25522 6.34438 9.20094 6.5 9.20208V9.20208ZM7.38292 13.1833C7.42083 13.5842 7.49667 13.9958 7.58063 13.9958H9.43042C10.0344 13.9958 10.0425 11.5908 9.47375 11.5908H9.15688L7.38292 13.1833ZM1.40833 11.6233L1.21875 11.0492L1.57083 10.3856L1.87417 10.3125L2.58375 9.32937C2.58375 8.59 3.01708 8.41937 3.57771 8.43562V9.77083L2.51604 10.5969L2.73 10.8379L2.65958 11.6315L2.13687 11.8508L1.40833 11.6233ZM2.51604 10.5969L1.87417 10.3017L2.51604 10.5969ZM5.64958 13.1833C5.61167 13.5842 5.53583 13.9958 5.44917 13.9958H3.59938C2.99813 13.9958 2.98729 11.5908 3.55604 11.5908H3.87563L5.64958 13.1833ZM8.10604 7.29271H7.29354V7.08687C7.30933 6.99052 7.35885 6.90291 7.43327 6.83969C7.50769 6.77647 7.60215 6.74177 7.69979 6.74177C7.79743 6.74177 7.8919 6.77647 7.96631 6.83969C8.04073 6.90291 8.09025 6.99052 8.10604 7.08687V7.29271ZM5.72 7.29271H4.9075V7.08687C4.92329 6.99052 4.97281 6.90291 5.04723 6.83969C5.12164 6.77647 5.21611 6.74177 5.31375 6.74177C5.41139 6.74177 5.50586 6.77647 5.58027 6.83969C5.65469 6.90291 5.70421 6.99052 5.72 7.08687V7.29271Z" stroke="#2C3BBF" stroke-width="0.4" stroke-linecap="round" stroke-linejoin="round"/>
<path d="M9.02141 8.30562H3.97849C3.87219 8.30562 3.77023 8.34785 3.69506 8.42302C3.61989 8.4982 3.57766 8.60015 3.57766 8.70646V10.3965C3.57766 11.1715 3.88554 11.9148 4.43358 12.4628C4.98162 13.0109 5.72491 13.3187 6.49995 13.3187C7.27499 13.3187 8.01829 13.0109 8.56632 12.4628C9.11436 11.9148 9.42224 11.1715 9.42224 10.3965V8.70646C9.42224 8.60015 9.38001 8.4982 9.30484 8.42302C9.22967 8.34785 9.12772 8.30562 9.02141 8.30562V8.30562ZM6.49995 4.97979C7.27499 4.97979 8.01829 5.28767 8.56632 5.83571C9.11436 6.38375 9.42224 7.12704 9.42224 7.90208V7.90208C9.42224 7.95508 9.41181 8.00755 9.39153 8.05651C9.37125 8.10547 9.34152 8.14996 9.30405 8.18743C9.26658 8.2249 9.22209 8.25463 9.17313 8.27491C9.12417 8.29519 9.0717 8.30562 9.0187 8.30562H3.97849C3.87147 8.30562 3.76882 8.26311 3.69315 8.18743C3.61747 8.11175 3.57495 8.00911 3.57495 7.90208V7.90208C3.57495 7.51809 3.65063 7.13787 3.79766 6.78314C3.94468 6.42842 4.16018 6.10615 4.43183 5.83475C4.70348 5.56336 5.02595 5.34816 5.38081 5.20146C5.73567 5.05476 6.11596 4.97944 6.49995 4.97979V4.97979Z" stroke="#2C3BBF" stroke-width="0.4" stroke-linecap="round" stroke-linejoin="round"/>
</svg>
