<svg width="34" height="34" viewBox="0 0 34 34" fill="none" xmlns="http://www.w3.org/2000/svg">
<rect width="34" height="34" rx="17" fill="#E0E0E0" fill-opacity="0.24"/>
<path d="M30.3167 22.5533L30.8125 21.0517L29.8917 19.3163L29.0983 19.125L27.2425 16.5538C27.2425 14.62 26.1092 14.1738 24.6429 14.2163V17.7083L27.4196 19.8829L26.86 20.5133L27.0442 22.5888L28.4112 23.1625L30.3167 22.5533ZM27.4975 19.8688L29.1762 19.0967L27.4975 19.8688ZM17 16.2208C17.4058 16.2213 17.7982 16.3656 18.1076 16.6282C18.4169 16.8908 18.6231 17.2546 18.6894 17.6549C18.7557 18.0553 18.6778 18.4661 18.4696 18.8144C18.2615 19.1627 17.9365 19.4259 17.5525 19.5571L18.3033 23.1838L17 23.545L15.6825 23.1838L16.4333 19.5571C16.0482 19.4255 15.7224 19.1612 15.5143 18.8114C15.3062 18.4616 15.2293 18.0492 15.2975 17.6479C15.3657 17.2467 15.5744 16.8827 15.8863 16.6213C16.1982 16.3598 16.593 16.2179 17 16.2208V16.2208ZM19.3092 26.6333C19.4083 27.6817 19.6067 28.7583 19.8262 28.7583H24.6642C26.2437 28.7583 26.265 22.4683 24.7775 22.4683H23.9488L19.3092 26.6333ZM3.68333 22.5533L3.1875 21.0517L4.10833 19.3163L4.90167 19.125L6.7575 16.5538C6.7575 14.62 7.89083 14.1738 9.35708 14.2163V17.7083L6.58042 19.8688L7.14 20.4992L6.95583 22.5746L5.58875 23.1483L3.68333 22.5533ZM6.58042 19.8688L4.90167 19.0967L6.58042 19.8688ZM14.7758 26.6333C14.6767 27.6817 14.4783 28.7583 14.2517 28.7583H9.41375C7.84125 28.7583 7.81292 22.4683 9.30042 22.4683H10.1363L14.7758 26.6333ZM21.2004 11.2271H19.0754V10.6888C19.1167 10.4367 19.2462 10.2076 19.4409 10.0423C19.6355 9.87694 19.8825 9.78617 20.1379 9.78617C20.3933 9.78617 20.6403 9.87694 20.835 10.0423C21.0296 10.2076 21.1591 10.4367 21.2004 10.6888V11.2271ZM14.96 11.2271H12.835V10.6888C12.8763 10.4367 13.0058 10.2076 13.2004 10.0423C13.3951 9.87694 13.6421 9.78617 13.8975 9.78617C14.1529 9.78617 14.3999 9.87694 14.5946 10.0423C14.7892 10.2076 14.9187 10.4367 14.96 10.6888V11.2271Z" stroke="#10F0AD" stroke-linecap="round" stroke-linejoin="round"/>
<path d="M23.5946 13.8762H10.4054C10.1274 13.8762 9.86071 13.9867 9.66411 14.1833C9.46751 14.3799 9.35706 14.6465 9.35706 14.9246V19.3446C9.35706 21.3716 10.1623 23.3156 11.5956 24.7489C13.0289 26.1823 14.9729 26.9875 17 26.9875C19.027 26.9875 20.971 26.1823 22.4043 24.7489C23.8377 23.3156 24.6429 21.3716 24.6429 19.3446V14.9246C24.6429 14.6465 24.5324 14.3799 24.3358 14.1833C24.1392 13.9867 23.8726 13.8762 23.5946 13.8762V13.8762ZM17 5.17791C19.027 5.17791 20.971 5.98315 22.4043 7.41647C23.8377 8.8498 24.6429 10.7938 24.6429 12.8208V12.8208C24.6429 12.9594 24.6156 13.0967 24.5626 13.2247C24.5095 13.3528 24.4318 13.4691 24.3338 13.5671C24.2358 13.6651 24.1194 13.7429 23.9914 13.7959C23.8633 13.8489 23.7261 13.8762 23.5875 13.8762H10.4054C10.1255 13.8762 9.85703 13.765 9.6591 13.5671C9.46117 13.3692 9.34998 13.1007 9.34998 12.8208V12.8208C9.34998 11.8166 9.5479 10.8221 9.93244 9.89437C10.317 8.96663 10.8806 8.12377 11.591 7.41396C12.3015 6.70416 13.1449 6.14134 14.073 5.75766C15.0011 5.37399 15.9957 5.17698 17 5.17791V5.17791Z" stroke="#10F0AD" stroke-linecap="round" stroke-linejoin="round"/>
</svg>
